<?xml version="1.0" encoding="utf-8"?>
<!-- Generator: Adobe Illustrator 16.0.2, SVG Export Plug-In . SVG Version: 6.00 Build 0)  -->
<!DOCTYPE svg PUBLIC "-//W3C//DTD SVG 1.1//EN" "http://www.w3.org/Graphics/SVG/1.1/DTD/svg11.dtd">
<svg version="1.1" id="Layer_1" xmlns="http://www.w3.org/2000/svg" xmlns:xlink="http://www.w3.org/1999/xlink" x="0px" y="0px"
	 width="141.73px" height="141.73px" viewBox="0 0 141.73 141.73" enable-background="new 0 0 141.73 141.73" xml:space="preserve">
<path fill="#FFFFFF" stroke="#000000" stroke-miterlimit="10" d="M113.924,61.746c0,23.167-17.449,39.302-40.893,39.302
	c-23.441,0-44-16.136-44-39.302c0-23.167,19.005-40.025,42.446-40.025C94.922,21.721,113.924,38.578,113.924,61.746z"/>
<circle fill="#FFFFFF" stroke="#000000" stroke-miterlimit="10" cx="45" cy="44.58" r="8.581"/>
<circle fill="#FFFFFF" stroke="#000000" stroke-miterlimit="10" cx="88.589" cy="44.58" r="8.581"/>
<ellipse stroke="#000000" stroke-miterlimit="10" cx="41.939" cy="47.587" rx="3.061" ry="3.006"/>
<ellipse stroke="#000000" stroke-miterlimit="10" cx="85.53" cy="48.056" rx="3.059" ry="2.537"/>
<g>
	<path fill="none" stroke="#000000" stroke-miterlimit="10" d="M45,28.647c0-6.992-2.087-12.649-4.666-12.649"/>
	<path fill="none" stroke="#000000" stroke-miterlimit="10" d="M40.333,15.165c6.333,0.833,12.5,0.833,15.248,8.596"/>
</g>
<g>
	<path fill="none" stroke="#000000" stroke-miterlimit="10" d="M79.43,23.361c4.76-5.121,7.082-10.687,5.193-12.442"/>
	<path fill="none" stroke="#000000" stroke-miterlimit="10" d="M85.19,10.309c4.071,4.922,8.589,9.121,5.317,16.677"/>
</g>
<path stroke="#000000" stroke-miterlimit="10" d="M70.418,61.384c3.083,0,5.582,1.054,5.582,2.354c0,1.3-2.498,2.354-5.582,2.354
	s-5.668-1.054-5.668-2.354C64.75,62.438,67.335,61.384,70.418,61.384"/>
<line stroke="#000000" stroke-miterlimit="10" x1="61.583" y1="60.333" x2="46" y2="58.5"/>
<line stroke="#000000" stroke-miterlimit="10" x1="60.333" y1="64.417" x2="46.333" y2="65.583"/>
<line stroke="#000000" stroke-miterlimit="10" x1="60.333" y1="67.833" x2="48.833" y2="73.583"/>
<line stroke="#000000" stroke-miterlimit="10" x1="81.833" y1="60.667" x2="94.833" y2="58.5"/>
<line stroke="#000000" stroke-miterlimit="10" x1="81.833" y1="65" x2="93.167" y2="65"/>
<line stroke="#000000" stroke-miterlimit="10" x1="80.5" y1="68.667" x2="94.417" y2="73.583"/>
<line stroke="#000000" stroke-miterlimit="10" x1="67.5" y1="73.583" x2="74.917" y2="73.583"/>
</svg>
