<?xml version="1.0" encoding="utf-8"?>
<!-- Generator: Adobe Illustrator 16.0.2, SVG Export Plug-In . SVG Version: 6.00 Build 0)  -->
<!DOCTYPE svg PUBLIC "-//W3C//DTD SVG 1.1//EN" "http://www.w3.org/Graphics/SVG/1.1/DTD/svg11.dtd">
<svg version="1.1" id="Layer_1" xmlns="http://www.w3.org/2000/svg" xmlns:xlink="http://www.w3.org/1999/xlink" x="0px" y="0px"
	 width="64px" height="64px" viewBox="0 0 64 64" enable-background="new 0 0 64 64" xml:space="preserve">
<path stroke="#000000" stroke-miterlimit="10" d="M50.508,34.905c0,6.053-4.907,10.96-10.96,10.96H22.646
	c-6.053,0-10.959-4.907-10.959-10.96l0,0c0-6.053,4.907-10.959,10.959-10.959h16.902C45.601,23.946,50.508,28.853,50.508,34.905
	L50.508,34.905z"/>
<circle fill="#FFFFFF" cx="20.915" cy="34.906" r="4.444"/>
<circle cx="20.915" cy="34.906" r="2.222"/>
<circle fill="#FFFFFF" cx="42.207" cy="34.905" r="4.444"/>
<circle cx="42.207" cy="34.905" r="2.222"/>
<path fill="#FFFFFF" d="M36.089,42.242c0,0.572-0.464,1.035-1.036,1.035h-6.106c-0.572,0-1.036-0.463-1.036-1.035l0,0
	c0-0.572,0.464-1.035,1.036-1.035h6.106C35.625,41.207,36.089,41.67,36.089,42.242L36.089,42.242z"/>
<path d="M10.446,44.381c0,0.82-0.61,1.484-1.363,1.484l0,0c-0.753,0-1.363-0.664-1.363-1.484V26.085c0-0.82,0.61-1.485,1.363-1.485
	l0,0c0.753,0,1.363,0.665,1.363,1.485V44.381z"/>
<path d="M6.464,39.807c0,0.411-0.306,0.743-0.682,0.743l0,0c-0.376,0-0.682-0.332-0.682-0.743v-9.148
	c0-0.41,0.305-0.743,0.682-0.743l0,0c0.376,0,0.682,0.333,0.682,0.743V39.807z"/>
<circle cx="2.446" cy="35.233" r="2"/>
<path d="M22.727,22.348c-0.821,0-1.485-0.61-1.485-1.363l0,0c0-0.753,0.664-1.363,1.485-1.363h18.295
	c0.819,0,1.484,0.61,1.484,1.363l0,0c0,0.753-0.665,1.363-1.484,1.363H22.727z"/>
<path d="M27.301,18.367c-0.411,0-0.743-0.306-0.743-0.682l0,0c0-0.376,0.332-0.682,0.743-0.682h9.148
	c0.41,0,0.743,0.305,0.743,0.682l0,0c0,0.376-0.333,0.682-0.743,0.682H27.301z"/>
<circle cx="31.874" cy="14.349" r="2"/>
<path d="M53.556,26.085c0-0.821,0.609-1.485,1.363-1.485l0,0c0.752,0,1.363,0.664,1.363,1.485v18.294
	c0,0.82-0.611,1.486-1.363,1.486l0,0c-0.754,0-1.363-0.666-1.363-1.486V26.085z"/>
<path d="M57.536,30.659c0-0.411,0.307-0.743,0.683-0.743l0,0c0.376,0,0.682,0.332,0.682,0.743v9.148c0,0.41-0.306,0.743-0.682,0.743
	l0,0c-0.376,0-0.683-0.333-0.683-0.743V30.659z"/>
<circle cx="61.555" cy="35.232" r="2"/>
</svg>
