<?xml version="1.0" encoding="utf-8"?>
<!-- Generator: Adobe Illustrator 16.0.2, SVG Export Plug-In . SVG Version: 6.00 Build 0)  -->
<!DOCTYPE svg PUBLIC "-//W3C//DTD SVG 1.1//EN" "http://www.w3.org/Graphics/SVG/1.1/DTD/svg11.dtd">
<svg version="1.1" id="Layer_1" xmlns="http://www.w3.org/2000/svg" xmlns:xlink="http://www.w3.org/1999/xlink" x="0px" y="0px"
	 width="128px" height="128px" viewBox="0 0 128 128" enable-background="new 0 0 128 128" xml:space="preserve">
<circle fill="#FFFFFF" stroke="#000000" stroke-miterlimit="10" cx="25.635" cy="49.582" r="3.75"/>
<path fill="#FFFFFF" stroke="#000000" stroke-width="0.25" stroke-miterlimit="10" d="M25.635,57.082c-4.14,0-7.5-3.36-7.5-7.5
	s3.36-7.5,7.5-7.5c-8.29,0-15,6.71-15,15c0,8.28,6.71,15,15,15c4.14,0,7.5-3.361,7.5-7.5C33.135,60.441,29.775,57.082,25.635,57.082
	z M25.635,68.332c-2.07,0-3.75-1.68-3.75-3.75c0-2.07,1.68-3.75,3.75-3.75s3.75,1.68,3.75,3.75
	C29.385,66.652,27.705,68.332,25.635,68.332z"/>
<circle fill="#FFFFFF" stroke="#000000" stroke-miterlimit="10" cx="25.635" cy="64.582" r="3.75"/>
<circle fill="#FFFFFF" stroke="#000000" stroke-miterlimit="10" cx="25.635" cy="64.582" r="3.75"/>
<circle stroke="#000000" stroke-miterlimit="10" cx="25.635" cy="64.582" r="3.75"/>
<path stroke="#000000" stroke-width="0.25" stroke-miterlimit="10" d="M25.635,42.082c-4.14,0-7.5,3.36-7.5,7.5s3.36,7.5,7.5,7.5
	s7.5,3.36,7.5,7.5c0,4.139-3.36,7.5-7.5,7.5c8.28,0,15-6.721,15-15C40.635,48.792,33.915,42.082,25.635,42.082z M25.635,53.332
	c-2.07,0-3.75-1.68-3.75-3.75s1.68-3.75,3.75-3.75s3.75,1.68,3.75,3.75S27.705,53.332,25.635,53.332z"/>
<circle fill="#FFFFFF" stroke="#000000" stroke-miterlimit="10" cx="25.635" cy="49.582" r="3.75"/>
<circle fill="#FFFFFF" stroke="#000000" stroke-miterlimit="10" cx="25.635" cy="49.582" r="3.75"/>
<path fill="none" stroke="#000000" stroke-miterlimit="10" d="M83.667,0.454"/>
<path fill="none" stroke="#000000" stroke-width="0.25" stroke-miterlimit="10" d="M63.27,79.533
	c-3.861-6.869-5.618-9.996-7.403-38.511C79.293,57.376,81.053,60.505,84.91,67.373c3.859,6.869,2.145,15.16-3.832,18.518
	C75.102,89.25,67.129,86.402,63.27,79.533z"/>
<path fill="#FF0000" stroke="#000000" stroke-width="0.25" stroke-miterlimit="10" d="M81.078,85.891
	c-5.977,3.359-13.949,0.512-17.809-6.357c-3.861-6.869-5.618-9.996-7.403-38.511C79.293,57.376,81.053,60.505,84.91,67.373
	C88.77,74.242,87.055,82.533,81.078,85.891"/>
<path fill="#FFFF00" stroke="#000000" stroke-width="0.25" stroke-miterlimit="10" d="M70.508,85.857
	c-6.016-3.289-7.825-11.559-4.046-18.473c3.78-6.914,5.501-10.061,28.737-26.685c-1.455,28.532-3.178,31.681-6.957,38.595
	C84.461,86.209,76.522,89.146,70.508,85.857"/>
<circle fill="#FF0000" stroke="#000000" stroke-width="0.25" stroke-miterlimit="10" cx="70.398" cy="68.086" r="2"/>
<circle fill="#FF0000" stroke="#000000" stroke-width="0.25" stroke-miterlimit="10" cx="81.844" cy="68.086" r="2"/>
</svg>
