<?xml version="1.0" encoding="utf-8"?>
<!-- Generator: Adobe Illustrator 16.0.2, SVG Export Plug-In . SVG Version: 6.00 Build 0)  -->
<!DOCTYPE svg PUBLIC "-//W3C//DTD SVG 1.1//EN" "http://www.w3.org/Graphics/SVG/1.1/DTD/svg11.dtd">
<svg version="1.1" id="Layer_1" xmlns="http://www.w3.org/2000/svg" xmlns:xlink="http://www.w3.org/1999/xlink" x="0px" y="0px"
	 width="64px" height="64px" viewBox="0 0 64 64" enable-background="new 0 0 64 64" xml:space="preserve">
<polygon fill="#00695C" points="18.694,13.483 18.694,13.484 15.534,13.484 18.547,42.711 18.694,42.711 44.76,42.711 
	44.907,42.711 47.921,13.483 "/>
<polygon fill="#003922" points="30.395,28.317 32,31.098 33.605,28.317 "/>
<path fill="#FFFFFF" d="M19.528,17.629l0.847,4.689h2.081c-0.158-0.29-0.256-0.618-0.256-0.972c0-1.129,0.916-2.045,2.045-2.045
	c1.129,0,2.044,0.916,2.044,2.045v-3.717H19.528z"/>
<path fill="#FFFFFF" d="M26.289,22.318v-0.972c0,0.354-0.098,0.682-0.256,0.972H26.289z"/>
<path fill="#004D40" d="M24.245,19.302c-1.129,0-2.045,0.916-2.045,2.045c0,0.354,0.098,0.682,0.256,0.972h3.577
	c0.158-0.29,0.256-0.618,0.256-0.972C26.289,20.217,25.374,19.302,24.245,19.302z"/>
<path fill="#FFFFFF" d="M44.289,17.144l-0.848,4.689H41.36c0.158-0.29,0.257-0.618,0.257-0.972c0-1.129-0.916-2.045-2.045-2.045
	s-2.045,0.916-2.045,2.045v-3.717H44.289z"/>
<path fill="#FFFFFF" d="M37.527,21.833v-0.972c0,0.354,0.098,0.682,0.256,0.972H37.527z"/>
<path fill="#004D40" d="M39.572,18.816c1.129,0,2.045,0.916,2.045,2.045c0,0.354-0.099,0.682-0.257,0.972h-3.577
	c-0.158-0.29-0.256-0.618-0.256-0.972C37.527,19.731,38.443,18.816,39.572,18.816z"/>
<line fill="none" stroke="#004D40" stroke-width="0.25" stroke-miterlimit="10" x1="27.938" y1="28.097" x2="19.528" y2="26.938"/>
<line fill="none" stroke="#004D40" stroke-width="0.25" stroke-miterlimit="10" x1="27.938" y1="29.707" x2="19.528" y2="29.707"/>
<line fill="none" stroke="#004D40" stroke-width="0.25" stroke-miterlimit="10" x1="27.938" y1="31.098" x2="19.528" y2="32.375"/>
<line fill="none" stroke="#004D40" stroke-width="0.25" stroke-miterlimit="10" x1="36.159" y1="28.148" x2="44.569" y2="26.988"/>
<line fill="none" stroke="#004D40" stroke-width="0.25" stroke-miterlimit="10" x1="36.159" y1="29.758" x2="44.569" y2="29.758"/>
<line fill="none" stroke="#004D40" stroke-width="0.25" stroke-miterlimit="10" x1="36.159" y1="31.148" x2="44.569" y2="32.426"/>
<line fill="#003922" x1="33.813" y1="33.188" x2="30.188" y2="33.188"/>
<ellipse fill="#FFFFFF" cx="24.841" cy="20.392" rx="0.403" ry="0.418"/>
<circle fill="#FFFFFF" cx="40.067" cy="19.993" r="0.4"/>
<polygon fill="#00897B" points="13.039,12.414 15.19,9.858 19.052,13.483 "/>
<polygon fill="#00897B" points="50.63,12.414 48.479,9.858 44.617,13.483 "/>
</svg>
