<?xml version="1.0" encoding="utf-8"?>
<!-- Generator: Adobe Illustrator 16.0.2, SVG Export Plug-In . SVG Version: 6.00 Build 0)  -->
<!DOCTYPE svg PUBLIC "-//W3C//DTD SVG 1.1//EN" "http://www.w3.org/Graphics/SVG/1.1/DTD/svg11.dtd">
<svg version="1.1" id="Layer_1" xmlns="http://www.w3.org/2000/svg" xmlns:xlink="http://www.w3.org/1999/xlink" x="0px" y="0px"
	 width="512px" height="512px" viewBox="0 0 512 512" enable-background="new 0 0 512 512" xml:space="preserve">
<rect fill="#87CEFA" width="512" height="512"/>
<text transform="matrix(1 0 0 1 138.896 328.2998)" fill="#FFFFFF" font-family="'KristenITC-Regular'" font-size="219.7246">M</text>
<g>
	<path fill="#FFFFFF" d="M382.044,111.042c9.575,9.574-5.393,40.063-14.967,49.637c-9.573,9.573-2.93-12.592-12.504-22.166
		c-9.573-9.575-31.739-2.931-22.166-12.504C341.981,116.435,372.47,101.468,382.044,111.042z"/>
	<path fill="#EEEEEE" d="M376.313,116.176c5.615,5.616-3.164,23.499-8.778,29.115c-5.616,5.615-1.72-7.386-7.335-13.002
		c-5.616-5.616-18.617-1.719-13.001-7.334C352.813,119.339,370.697,110.56,376.313,116.176z"/>
</g>
<g>
	<g>
		<path fill="#FFFFFF" d="M147.665,289.589c-8.447-2.729-17.082-6.438-22.126-14.127c-6.093-9.289-4.071-20.779-1.985-30.896
			c4.084-19.809-20.94-25.385-34.889-29.977c-3.071-1.011-4.377,3.818-1.329,4.821c8.542,2.813,17.363,5.19,25.024,10.059
			c4.957,3.15,7.329,7.868,6.372,13.767c-0.945,5.826-2.364,11.008-2.281,16.987c0.11,7.937,2.475,15.469,7.617,21.559
			c5.573,6.6,14.279,10.047,22.268,12.629C149.413,295.405,150.72,290.576,147.665,289.589L147.665,289.589z"/>
	</g>
</g>
<g>
	<g>
		<path fill="#EEEEEE" d="M189.256,181.99c-5.128,29.81-7.356,60.011-8.631,90.204c-0.939,22.231-0.643,44.637-2.684,66.806
			c-0.296,3.212,4.707,3.183,5,0c1.992-21.626,1.75-43.488,2.617-65.177c1.21-30.284,3.376-60.608,8.52-90.504
			C194.62,180.167,189.802,178.817,189.256,181.99L189.256,181.99z"/>
	</g>
</g>
</svg>
