<?xml version="1.0" encoding="utf-8"?>
<!-- Generator: Adobe Illustrator 16.0.2, SVG Export Plug-In . SVG Version: 6.00 Build 0)  -->
<!DOCTYPE svg PUBLIC "-//W3C//DTD SVG 1.1//EN" "http://www.w3.org/Graphics/SVG/1.1/DTD/svg11.dtd">
<svg version="1.1" id="Layer_1" xmlns="http://www.w3.org/2000/svg" xmlns:xlink="http://www.w3.org/1999/xlink" x="0px" y="0px"
	 width="2048px" height="512px" viewBox="0 0 2048 512" enable-background="new 0 0 2048 512" xml:space="preserve">
<text transform="matrix(1 0 0 1 359.6602 440.4326)"><tspan x="0" y="0" fill="#FFFFFF" font-family="'KristenITC-Regular'" font-size="399.1917">M</tspan><tspan x="425.505" y="0" fill="#FFFFFF" font-family="'KristenITC-Regular'" font-size="181.6782">eohamhoc</tspan></text>
<g>
	<path fill="#FFFFFF" d="M801.406,45.723c17.396,17.395-9.797,72.785-27.192,90.18c-17.392,17.393-5.323-22.878-22.717-40.271
		c-17.392-17.395-57.663-5.325-40.271-22.717C728.622,55.521,784.012,28.33,801.406,45.723z"/>
	<path fill="#EEEEEE" d="M790.994,55.052c10.201,10.202-5.749,42.692-15.948,52.895c-10.204,10.202-3.125-13.417-13.327-23.622
		c-10.203-10.202-33.823-3.122-23.62-13.324C748.299,60.798,780.792,44.849,790.994,55.052z"/>
</g>
<g>
	<g>
		<path fill="#FFFFFF" d="M375.047,372.074c-14.98-4.791-30.591-11.412-40.079-24.586c-10.552-14.654-10.847-35.379-6.835-52.258
			c2.243-9.436,4.058-18.385-0.645-27.381c-3.229-6.176-8.341-10.461-14.18-14.128c-13.813-8.676-30.114-12.83-45.452-17.905
			c-3.07-1.016-4.375,3.813-1.329,4.821c15.397,5.095,31.409,9.331,45.27,18.036c7.49,4.705,13.352,11.553,13.842,20.746
			c0.287,5.387-1.467,10.859-2.699,16.045c-1.306,5.496-1.87,10.873-2.029,16.51c-0.423,15.055,2.908,30.012,12.642,41.797
			c10.006,12.113,25.607,18.469,40.165,23.125C376.798,377.881,378.106,373.053,375.047,372.074L375.047,372.074z"/>
	</g>
</g>
</svg>
