<?xml version="1.0" encoding="utf-8"?>
<!-- Generator: Adobe Illustrator 16.0.2, SVG Export Plug-In . SVG Version: 6.00 Build 0)  -->
<!DOCTYPE svg PUBLIC "-//W3C//DTD SVG 1.1//EN" "http://www.w3.org/Graphics/SVG/1.1/DTD/svg11.dtd">
<svg version="1.1" id="Layer_1" xmlns="http://www.w3.org/2000/svg" xmlns:xlink="http://www.w3.org/1999/xlink" x="0px" y="0px"
	 width="2048px" height="512px" viewBox="0 0 2048 512" enable-background="new 0 0 2048 512" xml:space="preserve">
<text transform="matrix(1 0 0 1 131.9678 442.4883)"><tspan x="0" y="0" fill="#FFFFFF" font-family="'KristenITC-Regular'" font-size="399.1917">M</tspan><tspan x="425.505" y="0" fill="#FFFFFF" font-family="'KristenITC-Regular'" font-size="181.6782">eohamhoc.com</tspan></text>
<g>
	<path fill="#FFFFFF" d="M573.714,47.779c17.396,17.395-9.797,72.785-27.192,90.18c-17.392,17.393-5.323-22.878-22.717-40.271
		c-17.392-17.395-57.663-5.325-40.271-22.717C500.929,57.578,556.319,30.386,573.714,47.779z"/>
	<path fill="#EEEEEE" d="M563.301,57.108c10.201,10.202-5.749,42.692-15.948,52.895c-10.204,10.202-3.125-13.417-13.327-23.622
		c-10.203-10.202-33.823-3.122-23.62-13.324C520.607,62.854,553.099,46.905,563.301,57.108z"/>
</g>
<g>
	<g>
		<path fill="#FFFFFF" d="M147.355,374.13c-14.98-4.79-30.591-11.411-40.079-24.586c-10.552-14.654-10.847-35.378-6.835-52.257
			c2.243-9.436,4.058-18.386-0.645-27.381c-3.229-6.177-8.341-10.461-14.18-14.129c-13.813-8.676-30.114-12.83-45.452-17.905
			c-3.07-1.016-4.375,3.813-1.329,4.821c15.397,5.095,31.409,9.331,45.27,18.037c7.49,4.705,13.352,11.553,13.842,20.745
			c0.287,5.388-1.467,10.86-2.699,16.045c-1.306,5.497-1.87,10.874-2.029,16.51c-0.423,15.055,2.908,30.012,12.642,41.797
			c10.006,12.114,25.607,18.47,40.165,23.125C149.106,379.937,150.414,375.108,147.355,374.13L147.355,374.13z"/>
	</g>
</g>
</svg>
